<svg xml:space="preserve" xmlns:xlink="http://www.w3.org/1999/xlink" class="sm_icon_fb" height="30px" id="Capa_1" style="enable-background:new 0 0 612 612; fill: #fff;" version="1.1" viewBox="0 0 612 612" width="30px" x="0px" xmlns="http://www.w3.org/2000/svg" y="0px"><g><g>
    <g>
      <path class="active-path" d="M612,306C612,137.004,474.995,0,306,0C137.004,0,0,137.004,0,306c0,168.995,137.004,306,306,306    C474.995,612,612,474.995,612,306z M27.818,306C27.818,152.36,152.36,27.818,306,27.818S584.182,152.36,584.182,306    S459.64,584.182,306,584.182S27.818,459.64,27.818,306z" data-old_color="#000000" data-original="#000000"></path>
      <path class="active-path" d="M317.739,482.617V306h58.279l9.208-58.529h-67.487v-29.348c0-15.272,5.007-29.849,26.928-29.849h43.813v-58.418h-62.201    c-52.298,0-66.569,34.438-66.569,82.175v35.413h-35.885V306h35.885v176.617H317.739L317.739,482.617z" data-old_color="#000000" data-original="#000000"></path>
    </g>
  </g></g> </svg>