<?xml version="1.0" encoding="UTF-8"?>
<svg version="1.1" xmlns="http://www.w3.org/2000/svg" width="474" height="474">
<path d="M0 0 C156.42 0 312.84 0 474 0 C474 156.42 474 312.84 474 474 C317.58 474 161.16 474 0 474 C0 317.58 0 161.16 0 0 Z " fill="#010101" transform="translate(0,0)"/>
<path d="M0 0 C12.23052934 -0.25530377 24.46042112 -0.45053716 36.69307613 -0.56993389 C42.37389935 -0.62725155 48.0528948 -0.70493753 53.73266602 -0.82983398 C59.21823016 -0.94969963 64.70204117 -1.01519552 70.18881416 -1.04364967 C72.27776246 -1.06391518 74.36661879 -1.10349342 76.45481682 -1.16303062 C92.79835134 -1.61030824 92.79835134 -1.61030824 98.21389771 2.35067749 C100.5245797 5.13413225 102.26827244 7.83248086 104 11 C105.16746691 12.63945182 106.35226292 14.26686211 107.5625 15.875 C108.20316406 16.76960938 108.84382813 17.66421875 109.50390625 18.5859375 C112.91112283 23.29232972 116.46982117 27.8856871 120 32.5 C124.65971622 38.594328 129.27564731 44.7053659 133.75 50.9375 C137.10560724 55.50485429 140.55792306 59.99762303 144 64.5 C148.68731613 70.63382168 153.35202007 76.77398518 157.86328125 83.0390625 C160.99208611 87.37477381 164.15021564 91.68866941 167.3125 96 C167.92432129 96.83869629 168.53614258 97.67739258 169.16650391 98.54150391 C170.03734619 99.72752197 170.03734619 99.72752197 170.92578125 100.9375 C171.44567627 101.64777344 171.96557129 102.35804688 172.5012207 103.08984375 C173.89864907 104.8708308 175.36278617 106.44010839 177 108 C177.63615234 107.25556641 177.63615234 107.25556641 178.28515625 106.49609375 C181.77022711 102.45953915 185.34957559 98.60982643 189.15527344 94.87597656 C190.93006491 93.0711198 192.5887865 91.21233157 194.23828125 89.29296875 C197.94716576 85.0275066 201.797442 80.91241891 205.6875 76.8125 C207.09288816 75.32463447 208.49783146 73.83634862 209.90234375 72.34765625 C210.59183105 71.61691895 211.28131836 70.88618164 211.99169922 70.13330078 C214.92455315 67.01790111 217.84259583 63.88915044 220.75 60.75 C221.22655029 60.23800049 221.70310059 59.72600098 222.1940918 59.19848633 C224.30794532 56.91067193 226.30075912 54.60965305 228.203125 52.140625 C228.79609375 51.43421875 229.3890625 50.7278125 230 50 C230.66 50 231.32 50 232 50 C232.26425781 49.40703125 232.52851563 48.8140625 232.80078125 48.203125 C234.04370425 45.91970946 235.30401646 44.52573277 237.1875 42.75 C239.59441458 40.41185441 241.87972044 38.04842283 244.0625 35.5 C248.08499031 30.8371581 252.29955352 26.36109364 256.50927734 21.86816406 C261.09196127 16.97687778 265.64687302 12.06112593 270.18041992 7.12426758 C271.44910923 5.74535408 272.72421044 4.3723469 274 3 C274.41717285 2.45722412 274.8343457 1.91444824 275.26416016 1.35522461 C277.85906578 -0.6706996 279.94854282 -0.33875292 283.19921875 -0.29296875 C285.01196289 -0.2784668 285.01196289 -0.2784668 286.86132812 -0.26367188 C288.7552832 -0.2259668 288.7552832 -0.2259668 290.6875 -0.1875 C292.59885742 -0.16719727 292.59885742 -0.16719727 294.54882812 -0.14648438 C297.69964057 -0.11108199 300.84961045 -0.0616979 304 0 C302.19438422 3.86336942 299.72512772 6.67888759 296.8125 9.75 C296.28857666 10.31001709 295.76465332 10.87003418 295.22485352 11.44702148 C293.48757261 13.3021358 291.74387166 15.1510815 290 17 C288.11698646 19.00547387 286.2353524 21.012236 284.35375977 23.01904297 C283.0709127 24.3870427 281.78754233 25.75455188 280.50366211 27.12158203 C275.88338595 32.04427412 271.30938506 37.00583786 266.7578125 41.9921875 C263.61163332 45.43296137 260.42902196 48.83960356 257.25 52.25 C253.83767093 55.91104687 250.45303664 59.58132418 247.1875 63.375 C244.34628345 66.67221427 241.31804922 69.72740075 238.1875 72.75 C236.28726116 74.70453138 234.49747754 76.7005086 232.7109375 78.7578125 C229.11666816 82.89591374 225.39143757 86.893895 221.625 90.875 C217.53919394 95.21193365 213.46542103 99.55209428 209.5 104 C203.14197287 111.12981077 196.54997056 118.047054 190 125 C193.39127517 130.63758605 196.88868772 136.01964398 201.125 141.0625 C205.13748494 145.8405698 208.80953952 150.7996559 212.4375 155.875 C217.00494634 162.26046005 221.66450105 168.53743108 226.48046875 174.73828125 C229.31967622 178.39897959 232.09901426 182.10374376 234.875 185.8125 C235.37781494 186.4842627 235.88062988 187.15602539 236.39868164 187.84814453 C237.42191671 189.21583012 238.44494631 190.58366946 239.46777344 191.95166016 C241.47740098 194.63820813 243.49047545 197.32216114 245.50390625 200.00585938 C247.00562634 202.00749934 248.50671801 204.0096096 250.0078125 206.01171875 C251.97959007 208.64096932 253.95369152 211.26844975 255.9296875 213.89453125 C261.92586446 221.86817082 267.86746908 229.87984876 273.77758789 237.91748047 C279.03216831 245.05778017 284.34358775 252.15424217 289.67431641 259.23779297 C291.61913442 261.82300409 293.5595199 264.41153192 295.5 267 C296.20898438 267.94488281 296.91796875 268.88976562 297.6484375 269.86328125 C299.4260984 272.2344801 301.20194782 274.60699204 302.9765625 276.98046875 C303.49444336 277.67245361 304.01232422 278.36443848 304.54589844 279.07739258 C305.58895969 280.47120495 306.63129162 281.86556343 307.67285156 283.26049805 C310.9852678 287.68546108 314.37208522 292.03664613 317.890625 296.30078125 C319 298 319 298 319 301 C306.85682626 301.44202364 294.71559083 301.77868787 282.56598473 301.98443127 C276.92259256 302.08323529 271.28473602 302.2169593 265.64453125 302.43334961 C260.19100241 302.64124606 254.74275953 302.75366904 249.28557205 302.80266762 C247.21414537 302.83753181 245.14297972 302.90563442 243.07383347 303.00887108 C227.3245792 303.76272717 227.3245792 303.76272717 221.77277374 299.14917374 C217.62375837 294.6128084 214.42205811 289.58624054 211.35893631 284.27576637 C209.47800675 281.12583491 207.29960617 278.35644649 205 275.5 C200.28400342 269.41884651 195.73100108 263.2245255 191.18066406 257.01879883 C187.76020181 252.36254764 184.29786121 247.74731121 180.75 243.1875 C177.47373048 238.96451623 174.3250862 234.68167465 171.25 230.3125 C167.32778345 224.74398879 163.20587643 219.35694056 159 214 C152.62415166 205.87667142 146.53835851 197.59619677 140.68408203 189.08740234 C138.35863448 185.49341233 138.35863448 185.49341233 135 183 C134.75636719 183.57234375 134.51273438 184.1446875 134.26171875 184.734375 C132.77482702 187.40433538 131.01916092 189.13829007 128.8125 191.25 C126.03582383 193.96516752 123.33776739 196.67456004 120.8125 199.625 C116.82910338 204.26307523 112.64077877 208.70228277 108.46166992 213.16308594 C104.66410837 217.21688175 100.88449874 221.28590137 97.125 225.375 C91.71000987 231.26085884 86.2221533 237.07666715 80.73120117 242.89160156 C76.37513925 247.5135017 72.10185031 252.19369947 67.87890625 256.9375 C65.55830154 259.48485819 63.11951982 261.89237889 60.6640625 264.30859375 C58.3253077 266.68577879 56.16780325 269.20392284 53.98828125 271.7265625 C51.22011911 274.89173021 48.4137199 278.0234836 45.50268555 281.05834961 C42.76784206 283.93311742 40.39156916 286.81771785 38.1640625 290.10546875 C34.14150134 295.66776936 30.66777278 300.28263541 23.63720703 301.65771484 C15.39682046 302.29686137 7.21167576 301.8324375 -1 301 C-1 299 -1 299 1.0703125 296.80078125 C2.04446657 295.86467471 3.02126546 294.93131643 4 294 C5.10387868 292.91250232 6.20532716 291.82253385 7.3046875 290.73046875 C7.88863281 290.15103516 8.47257812 289.57160156 9.07421875 288.97460938 C9.66847656 288.38486328 10.26273438 287.79511719 10.875 287.1875 C11.46152344 286.60935547 12.04804687 286.03121094 12.65234375 285.43554688 C16.33665992 281.7714742 19.80462491 277.98272955 23.20068359 274.05102539 C26.32877654 270.48533898 29.60899777 267.06393135 32.875 263.625 C37.87737246 258.33527904 42.8278552 253.01378081 47.671875 247.578125 C51.29976025 243.56066818 55.00823419 239.61910182 58.70751953 235.66748047 C62.32751404 231.79830108 65.9258284 227.91155653 69.5 224 C73.67711978 219.42857983 77.89304233 214.89566684 82.125 210.375 C86.64261483 205.54819939 91.10278761 200.67967287 95.50390625 195.74609375 C99.56054 191.28316179 103.71026731 186.90681719 107.86108398 182.53149414 C108.48184814 181.8739917 109.1026123 181.21648926 109.7421875 180.5390625 C110.2976123 179.95334473 110.85303711 179.36762695 111.42529297 178.76416016 C113.07412065 176.98242992 113.07412065 176.98242992 114.57861328 174.77880859 C115.28219971 173.89829834 115.28219971 173.89829834 116 173 C116.66 173 117.32 173 118 173 C118.28875 172.4225 118.5775 171.845 118.875 171.25 C119.91666667 169.16666667 120.95833333 167.08333333 122 165 C117.11872103 158.07273814 112.20758728 151.18689792 107 144.5 C103.63503764 140.17903784 100.40007898 135.79232805 97.25 131.3125 C92.73527598 124.90004607 87.95197519 118.71604985 83.08496094 112.56762695 C79.49266531 108.00773581 76.11967694 103.34236231 72.81469727 98.57080078 C69.68767299 94.14088478 66.3688841 89.85921733 63.0625 85.5625 C54.56598364 74.47003984 54.56598364 74.47003984 51 69.5 C47.11040173 64.08234527 43.05030052 58.79778207 39 53.5 C34.25391566 47.29113318 29.54290335 41.07167022 24.98046875 34.7265625 C22.37813447 31.14386166 19.72161499 27.60316942 17.0625 24.0625 C16.55267578 23.3826001 16.04285156 22.7027002 15.51757812 22.00219727 C13.10191751 18.78401594 10.67763652 15.57320644 8.23046875 12.37890625 C7.80950928 11.8264624 7.3885498 11.27401855 6.95483398 10.70483398 C5.82232462 9.21983539 4.68476918 7.73868897 3.546875 6.2578125 C2 4 2 4 2 2 C1.34 2 0.68 2 0 2 C0 1.34 0 0.68 0 0 Z " fill="#F9F9F9" transform="translate(78,87)"/>
<path d="M0 0 C5.95869518 -0.2734048 11.91369204 -0.47217396 17.87719727 -0.60424805 C19.90193302 -0.65932861 21.9262359 -0.73422392 23.94946289 -0.82983398 C40.72242077 -1.60219132 40.72242077 -1.60219132 46.22241211 2.2668457 C48.53132768 5.06659365 50.28755678 7.80716462 52 11 C52.83898069 12.18175781 53.6937021 13.3527631 54.57421875 14.50390625 C55.27160156 15.51324219 55.96898437 16.52257812 56.6875 17.5625 C61.21136691 24.02647499 66.01821441 30.24662116 70.91479492 36.43188477 C74.50701317 40.99205669 77.88022173 45.65749139 81.18530273 50.42919922 C84.31232915 54.85911825 87.63117152 59.14073648 90.9375 63.4375 C95.63917404 69.57714491 100.30631057 75.72833426 104.8203125 82.0078125 C109.89261955 88.970872 115.10617156 95.83096346 120.28320312 102.71630859 C122.42032161 105.55911381 124.55421245 108.40431898 126.6875 111.25 C127.37585938 112.1678125 128.06421875 113.085625 128.7734375 114.03125 C130.4453125 116.26041667 132.1171875 118.48958333 133.7890625 120.71875 C134.28172607 121.37560791 134.77438965 122.03246582 135.28198242 122.70922852 C136.30568677 124.07422208 137.32928635 125.43929421 138.3527832 126.80444336 C140.87989194 130.17485072 143.40857026 133.54405025 145.94140625 136.91015625 C151.37752109 144.13927345 156.77125599 151.3971262 162.125 158.6875 C166.79505575 165.04547441 171.54054304 171.32859498 176.375 177.5625 C179.65270722 181.82351938 182.82043447 186.16558025 186 190.5 C190.75700719 196.98341235 195.5786522 203.40108067 200.50390625 209.7578125 C204.94169549 215.49957126 209.26482225 221.32910159 213.60986328 227.14111328 C215.5704663 229.76282585 217.53519084 232.38143878 219.5 235 C220.19996094 235.93585938 220.89992188 236.87171875 221.62109375 237.8359375 C223.47896063 240.30699197 225.34730268 242.76882481 227.22265625 245.2265625 C227.77566406 245.95488281 228.32867187 246.68320312 228.8984375 247.43359375 C229.99224215 248.87402663 231.0897954 250.31162206 232.19140625 251.74609375 C232.68640625 252.39964844 233.18140625 253.05320312 233.69140625 253.7265625 C234.13685791 254.31002441 234.58230957 254.89348633 235.04125977 255.49462891 C236 257 236 257 236 259 C229.88057013 259.27305244 223.76471951 259.47201454 217.640625 259.60424805 C215.56056945 259.65938634 213.48093686 259.73432486 211.40234375 259.82983398 C194.17473232 260.60128114 194.17473232 260.60128114 189.04370117 256.82324219 C186.97692141 253.97946448 185.49263719 251.17736263 184 248 C182.90886671 246.42881259 181.78104798 244.88228571 180.61328125 243.3671875 C180.07429199 242.63282471 179.53530273 241.89846191 178.97998047 241.1418457 C173.3117412 233.43619393 167.57905127 225.78713149 161.75292969 218.20019531 C153.05004184 206.86583318 144.54243515 195.39082591 136.08374023 183.87353516 C132.6494202 179.20752115 129.17432116 174.57909679 125.625 170 C122.05077824 165.38716509 118.58603461 160.71249396 115.171875 155.98046875 C112.60706908 152.46078005 109.9940961 148.97937073 107.375 145.5 C102.89667603 139.55029805 98.46776484 133.56646441 94.0625 127.5625 C89.58824138 121.46715991 85.05329312 115.42631018 80.4375 109.4375 C76.03294797 103.72276683 71.75818703 97.93215013 67.5625 92.0625 C62.62092265 85.15175069 57.482068 78.42766064 52.23071289 71.75024414 C47.62523134 65.86847562 43.24503198 59.8486005 38.90771484 53.76757812 C34.37366724 47.44228479 29.61667902 41.30975086 24.81079102 35.18969727 C21.36490226 30.79041205 18.06769136 26.3405541 14.9296875 21.71484375 C11.53002227 16.93191393 7.8883926 12.32596046 4.26538086 7.71069336 C3.71503174 7.00178955 3.16468262 6.29288574 2.59765625 5.5625 C2.09758057 4.92441406 1.59750488 4.28632812 1.08227539 3.62890625 C0 2 0 2 0 0 Z " fill="#030303" transform="translate(120,108)"/>
<path d="M0 0 C12.87 0 25.74 0 39 0 C39 0.66 39 1.32 39 2 C37.65808594 2.51046875 37.65808594 2.51046875 36.2890625 3.03125 C21.70484528 8.87737545 11.27662345 17.30600518 4.5625 31.9375 C3.45643134 34.59107279 2.64543758 37.19892622 2 40 C1.34 40 0.68 40 0 40 C0 26.8 0 13.6 0 0 Z " fill="#F9F9F9" transform="translate(0,0)"/>
<path d="M0 0 C0.66 0 1.32 0 2 0 C2.24492188 0.85980469 2.48984375 1.71960938 2.7421875 2.60546875 C7.2902178 16.98665423 14.67793719 26.58700673 27.703125 34.29296875 C30.76676671 35.87923821 33.69734424 37.02421535 37 38 C37 38.66 37 39.32 37 40 C24.79 40 12.58 40 0 40 C0 26.8 0 13.6 0 0 Z " fill="#F8F8F8" transform="translate(0,434)"/>
<path d="M0 0 C13.2 0 26.4 0 40 0 C40 11.88 40 23.76 40 36 C39.34 36 38.68 36 38 36 C37.57589844 35.0821875 37.15179688 34.164375 36.71484375 33.21875 C30.39695335 19.8599359 22.63957545 10.02488727 8.30493164 4.73706055 C5.55193637 3.77481818 2.7833111 2.87028603 0 2 C0 1.34 0 0.68 0 0 Z " fill="#FAFAFA" transform="translate(434,0)"/>
<path d="M0 0 C0.66 0 1.32 0 2 0 C2 12.21 2 24.42 2 37 C-10.21 37 -22.42 37 -35 37 C-35 36.34 -35 35.68 -35 35 C-33.88625 34.62875 -32.7725 34.2575 -31.625 33.875 C-19.7530945 29.4125107 -10.37023873 21.98210648 -4 11 C-2.44688377 7.39276229 -1.14911543 3.75425289 0 0 Z " fill="#F7F7F7" transform="translate(472,437)"/>
<path d="M0 0 C0.99 0.99 1.98 1.98 3 3 C-3.28445928 8.38858956 -9.4188361 12.64493172 -17 16 C-17 12.89448334 -16.4606285 11.64738916 -15 9 C-14.34 9 -13.68 9 -13 9 C-11.0669193 7.19163418 -9.27890547 5.32741077 -7.5625 3.3125 C-5.49613133 1.57675032 -3.62785452 1.4149244 -1 1 C-0.67 0.67 -0.34 0.34 0 0 Z " fill="#0F0F0F" transform="translate(458,456)"/>
<path d="M0 0 C0.66 0.33 1.32 0.66 2 1 C1.484375 1.37125 0.96875 1.7425 0.4375 2.125 C-1.36319983 4.03173152 -1.36319983 4.03173152 -0.6875 7.1875 C-0.3471875 8.5796875 -0.3471875 8.5796875 0 10 C-1.65 11.32 -3.3 12.64 -5 14 C-7.475 13.01 -7.475 13.01 -10 12 C-3.84965831 3.55353075 -3.84965831 3.55353075 0 0 Z " fill="#EDEDED" transform="translate(175,281)"/>
<path d="M0 0 C2.46528135 0.39064415 3.73307988 0.73239371 5.51953125 2.5234375 C6.15955078 3.43996094 6.15955078 3.43996094 6.8125 4.375 C7.25207031 4.98085937 7.69164062 5.58671875 8.14453125 6.2109375 C9 8 9 8 8 11 C7.34 10.67 6.68 10.34 6 10 C3.90178785 10.39938767 3.90178785 10.39938767 2 11 C-0.47058824 5.07058824 -0.47058824 5.07058824 -1 2 C-0.67 1.34 -0.34 0.68 0 0 Z " fill="#F6F6F6" transform="translate(265,213)"/>
<path d="M0 0 C0.66 0.66 1.32 1.32 2 2 C1.360625 2.4125 0.72125 2.825 0.0625 3.25 C-2.25222762 5.21401132 -2.63159963 6.05279706 -3 9 C-3 9.99 -3 10.98 -3 12 C-3.598125 12.103125 -4.19625 12.20625 -4.8125 12.3125 C-7.05212396 12.82323528 -7.05212396 12.82323528 -8.375 14.4375 C-10.62538002 16.60132694 -13.04092468 17.14515602 -16 18 C-10.81643758 11.86157082 -5.42287737 5.92658337 0 0 Z " fill="#DFDFDF" transform="translate(336,107)"/>
<path d="M0 0 C0.66 1.98 1.32 3.96 2 6 C1.34 6.66 0.68 7.32 0 8 C0 9.32 0 10.64 0 12 C-2.59783875 9.4917419 -5.03692381 7.0427681 -7 4 C-7 3.01 -7 2.02 -7 1 C-4.53721199 -0.231394 -2.7204945 -0.07159196 0 0 Z " fill="#101010" transform="translate(174,169)"/>
<path d="M0 0 C0 0.66 0 1.32 0 2 C17.325 1.505 17.325 1.505 35 1 C35.495 1.99 35.495 1.99 36 3 C21.81 3 7.62 3 -7 3 C-7.33 3.66 -7.66 4.32 -8 5 C-8 4.01 -8 3.02 -8 2 C-4.91190305 0.23537317 -3.76687864 0 0 0 Z " fill="#EBEBEB" transform="translate(127,105)"/>
<path d="M0 0 C2.475 0.495 2.475 0.495 5 1 C5.103125 1.598125 5.20625 2.19625 5.3125 2.8125 C5.84018987 5.08110966 5.84018987 5.08110966 7.5625 6.5625 C8.036875 7.036875 8.51125 7.51125 9 8 C9 8.99 9 9.98 9 11 C8.34 11.66 7.68 12.32 7 13 C5.82157218 11.59310148 4.65762602 10.17406375 3.5 8.75 C2.8503125 7.96109375 2.200625 7.1721875 1.53125 6.359375 C0 4 0 4 0 0 Z " fill="#141414" transform="translate(143,137)"/>
<path d="M0 0 C0 0.66 0 1.32 0 2 C-1.75 3.5078125 -1.75 3.5078125 -4 5.125 C-4.7425 5.66382813 -5.485 6.20265625 -6.25 6.7578125 C-6.8275 7.16773438 -7.405 7.57765625 -8 8 C-4.23529412 0 -4.23529412 0 0 0 Z M-9 8 C-8.01 8.99 -7.02 9.98 -6 11 C-8.55991624 13.01136276 -11.04590299 14.62845496 -14 16 C-14 13 -14 13 -11.5 10.3125 C-10.675 9.549375 -9.85 8.78625 -9 8 Z " fill="#161616" transform="translate(135,357)"/>
<path d="M0 0 C3.73639216 1.24546405 4.18756513 2.63404953 6 6 C3.69 6.66 1.38 7.32 -1 8 C-1.66 6.35 -2.32 4.7 -3 3 C-2.01 2.01 -1.02 1.02 0 0 Z " fill="#0E0E0E" transform="translate(308,304)"/>
<path d="M0 0 C2.0625 0.4375 2.0625 0.4375 4 1 C3.34 2.98 2.68 4.96 2 7 C-2.455 7.495 -2.455 7.495 -7 8 C-1.125 1.125 -1.125 1.125 0 0 Z " fill="#151515" transform="translate(308,168)"/>
<path d="M0 0 C8.08888889 -0.46666667 8.08888889 -0.46666667 11.5625 1.3125 C13 3 13 3 13 6 C12.39671875 5.79503906 11.7934375 5.59007812 11.171875 5.37890625 C10.37265625 5.10949219 9.5734375 4.84007812 8.75 4.5625 C7.96109375 4.29566406 7.1721875 4.02882813 6.359375 3.75390625 C4.25178012 3.08045292 2.15246027 2.50849405 0 2 C0 1.34 0 0.68 0 0 Z " fill="#DBDBDB" transform="translate(434,0)"/>
<path d="M0 0 C2.875 0.1875 2.875 0.1875 6 1 C7.3125 3.3125 7.3125 3.3125 8 6 C8.20625 6.763125 8.4125 7.52625 8.625 8.3125 C8.74875 8.869375 8.8725 9.42625 9 10 C8.01 10.495 8.01 10.495 7 11 C5.82750647 9.54634731 4.66216184 8.08692581 3.5 6.625 C2.52546875 5.40683594 2.52546875 5.40683594 1.53125 4.1640625 C0 2 0 2 0 0 Z " fill="#111111" transform="translate(366,344)"/>
<path d="M0 0 C2.475 0.495 2.475 0.495 5 1 C5.66 3.64 6.32 6.28 7 9 C6.01 9 5.02 9 4 9 C0.8217901 5.7309841 0 4.67834007 0 0 Z " fill="#ECECEC" transform="translate(159,193)"/>
<path d="M0 0 C2.2477975 2.05233685 3.0022242 3.00667261 4 6 C4.66 6.33 5.32 6.66 6 7 C5.67 8.65 5.34 10.3 5 12 C1.71211176 8.88983545 -0.83735988 5.98381075 -3 2 C-2.01 1.34 -1.02 0.68 0 0 Z " fill="#EAEAEA" transform="translate(109,123)"/>
<path d="M0 0 C1.75 0.125 1.75 0.125 4 1 C6.25 4.0625 6.25 4.0625 8 7 C5.23735711 7.59732819 2.83967231 8 0 8 C0.33 7.01 0.66 6.02 1 5 C1.66 5 2.32 5 3 5 C3 4.34 3 3.68 3 3 C2.01 3.33 1.02 3.66 0 4 C0 2.68 0 1.36 0 0 Z " fill="#0E0E0E" transform="translate(290,375)"/>
<path d="M0 0 C0.66 0 1.32 0 2 0 C3.34152439 4.02457316 3.27060777 7.8055795 3 12 C2.01 12.66 1.02 13.32 0 14 C0 9.38 0 4.76 0 0 Z " fill="#EEEEEE" transform="translate(0,434)"/>
<path d="M0 0 C0.268125 0.598125 0.53625 1.19625 0.8125 1.8125 C1.98493467 3.97224808 3.19369282 5.35790256 5 7 C4 10 4 10 2 11 C0.35 8.69 -1.3 6.38 -3 4 C-2.01 2.68 -1.02 1.36 0 0 Z " fill="#0E0E0E" transform="translate(377,352)"/>
<path d="M0 0 C3.9036874 3.46994436 6.36588975 7.55224006 9 12 C8.01 12 7.02 12 6 12 C4.6273318 10.02678947 3.29572383 8.02456848 2 6 C1.01 5.34 0.02 4.68 -1 4 C-0.67 2.68 -0.34 1.36 0 0 Z " fill="#DFDFDF" transform="translate(342,313)"/>
<path d="M0 0 C3.82946843 1.45255699 5.12050295 3.42895561 7 7 C6.34 7.66 5.68 8.32 5 9 C2.5 7.875 2.5 7.875 0 6 C-0.3125 2.8125 -0.3125 2.8125 0 0 Z " fill="#111111" transform="translate(268,344)"/>
<path d="M0 0 C3.25524265 3.02272532 5.61820737 6.25718301 8 10 C7.01 10.33 6.02 10.66 5 11 C4.54625 10.175 4.0925 9.35 3.625 8.5 C2.820625 7.2625 2.820625 7.2625 2 6 C1.34 6 0.68 6 0 6 C-1.125 2.25 -1.125 2.25 0 0 Z " fill="#DEDEDE" transform="translate(318,281)"/>
<path d="M0 0 C1.875 0.25 1.875 0.25 4 1 C5.25 3.0625 5.25 3.0625 6 5 C5.34 5.66 4.68 6.32 4 7 C3.34 7 2.68 7 2 7 C1.01 7.495 1.01 7.495 0 8 C-1.125 2.25 -1.125 2.25 0 0 Z " fill="#ECECEC" transform="translate(265,213)"/>
<path d="M0 0 C0.66 0.33 1.32 0.66 2 1 C0.92598892 3.91517292 0.22189824 5.77810176 -2 8 C-2.99 8 -3.98 8 -5 8 C-5.99 8.495 -5.99 8.495 -7 9 C-5.44499019 5.18315774 -2.96404505 2.80804268 0 0 Z " fill="#181818" transform="translate(320,155)"/>
<path d="M0 0 C1.32 1.32 2.64 2.64 4 4 C3.34 5.32 2.68 6.64 2 8 C1.34 8 0.68 8 0 8 C-0.33 8.66 -0.66 9.32 -1 10 C-1.91078492 7.44980222 -2.17843392 6.40445022 -1.0625 3.875 C-0.711875 3.25625 -0.36125 2.6375 0 2 C0 1.34 0 0.68 0 0 Z " fill="#F1F1F1" transform="translate(275,317)"/>
<path d="M0 0 C0.66 0.33 1.32 0.66 2 1 C0.7934375 2.051875 0.7934375 2.051875 -0.4375 3.125 C-3.23433811 6.26291593 -3.71308751 7.88758763 -4 12 C-4.33 11.01 -4.66 10.02 -5 9 C-6.32 9.33 -7.64 9.66 -9 10 C-8.06409496 8.8944811 -7.12620142 7.79064547 -6.1875 6.6875 C-5.66542969 6.07261719 -5.14335937 5.45773438 -4.60546875 4.82421875 C-3.12827531 3.14575321 -1.59960869 1.56117966 0 0 Z " fill="#1C1C1C" transform="translate(347,126)"/>
<path d="M0 0 C1.32 0.33 2.64 0.66 4 1 C0.82679218 4.53586014 -1.16743695 6.58578031 -6 7 C-4.02 4.69 -2.04 2.38 0 0 Z " fill="#E2E2E2" transform="translate(127,333)"/>
<path d="M0 0 C0 3 0 3 -2.3125 5.6875 C-5 8 -5 8 -8 8 C-7.67 7.01 -7.34 6.02 -7 5 C-6.34 5 -5.68 5 -5 5 C-5.33 4.01 -5.66 3.02 -6 2 C-4.7934375 1.7834375 -4.7934375 1.7834375 -3.5625 1.5625 C-1.07896294 1.25864751 -1.07896294 1.25864751 0 0 Z " fill="#121212" transform="translate(123,335)"/>
<path d="M0 0 C0.99 0 1.98 0 3 0 C4.32 2.31 5.64 4.62 7 7 C5.02 7.33 3.04 7.66 1 8 C1.33 6.02 1.66 4.04 2 2 C1.34 2 0.68 2 0 2 C0 1.34 0 0.68 0 0 Z " fill="#F0F0F0" transform="translate(209,231)"/>
<path d="M0 0 C1.65 0 3.3 0 5 0 C5 0.99 5 1.98 5 3 C5.3062434 4.33981486 5.63451555 5.67511887 6 7 C5.01 7.495 5.01 7.495 4 8 C0 3.375 0 3.375 0 0 Z " fill="#141414" transform="translate(250,188)"/>
<path d="M0 0 C2.66735273 2.48952921 4.55746343 4.63408134 6 8 C5.01 8.495 5.01 8.495 4 9 C1 8 1 8 -0.25 6.1875 C-1.11637742 3.66056586 -0.88492145 2.47778006 0 0 Z " fill="#EBEBEB" transform="translate(226,158)"/>
<path d="M0 0 C-0.33 1.65 -0.66 3.3 -1 5 C-3.9375 3.6875 -3.9375 3.6875 -7 2 C-7.33 1.01 -7.66 0.02 -8 -1 C-4.59745511 -2.2151946 -3.06748874 -1.86240388 0 0 Z " fill="#0F0F0F" transform="translate(231,154)"/>
<path d="M0 0 C1.32 0.66 2.64 1.32 4 2 C3.1875 4.4375 3.1875 4.4375 2 7 C1.01 7.33 0.02 7.66 -1 8 C-1.125 2.25 -1.125 2.25 0 0 Z " fill="#0E0E0E" transform="translate(242,309)"/>
<path d="M0 0 C3.73639216 1.24546405 4.18756513 2.63404953 6 6 C5.34 6.66 4.68 7.32 4 8 C4 7.34 4 6.68 4 6 C1.525 5.01 1.525 5.01 -1 4 C-0.67 2.68 -0.34 1.36 0 0 Z " fill="#191919" transform="translate(213,270)"/>
<path d="M0 0 C3.73639216 1.24546405 4.18756513 2.63404953 6 6 C4.35 6.33 2.7 6.66 1 7 C0.67 5.68 0.34 4.36 0 3 C-0.66 3 -1.32 3 -2 3 C-2 2.34 -2 1.68 -2 1 C-1.34 0.67 -0.68 0.34 0 0 Z " fill="#101010" transform="translate(260,240)"/>
<path d="M0 0 C0.66 0.66 1.32 1.32 2 2 C2.66 1.67 3.32 1.34 4 1 C4.66 2.65 5.32 4.3 6 6 C5.01 6.66 4.02 7.32 3 8 C1.02 4.535 1.02 4.535 -1 1 C-0.67 0.67 -0.34 0.34 0 0 Z " fill="#111111" transform="translate(242,176)"/>
<path d="M0 0 C1.32 1.32 2.64 2.64 4 4 C2.68 4.99 1.36 5.98 0 7 C-0.66 6.01 -1.32 5.02 -2 4 C-1.34 2.68 -0.68 1.36 0 0 Z M-4 5 C-3.34 5 -2.68 5 -2 5 C-2.33 5.66 -2.66 6.32 -3 7 C-3.33 6.34 -3.66 5.68 -4 5 Z " fill="#0D0D0D" transform="translate(180,225)"/>
<path d="M0 0 C1.65 1.65 3.3 3.3 5 5 C4.34 5.66 3.68 6.32 3 7 C1.0625 6.25 1.0625 6.25 -1 5 C-1.75 2.875 -1.75 2.875 -2 1 C-1.34 0.67 -0.68 0.34 0 0 Z " fill="#161616" transform="translate(267,248)"/>
<path d="M0 0 C2.97 1.98 2.97 1.98 6 4 C5.67 4.66 5.34 5.32 5 6 C3.68 5.67 2.36 5.34 1 5 C0.67 3.35 0.34 1.7 0 0 Z M-1 5 C-0.34 5 0.32 5 1 5 C0.67 5.99 0.34 6.98 0 8 C-0.33 7.01 -0.66 6.02 -1 5 Z " fill="#101010" transform="translate(169,212)"/>
<path d="M0 0 C1.32 0.66 2.64 1.32 4 2 C4 2.99 4 3.98 4 5 C2.68 4.67 1.36 4.34 0 4 C0.33 4.99 0.66 5.98 1 7 C0.34 7 -0.32 7 -1 7 C-2 4 -2 4 -1.0625 1.8125 C-0.5365625 0.9153125 -0.5365625 0.9153125 0 0 Z " fill="#ECECEC" transform="translate(178,189)"/>
<path d="M0 0 C0.66 0 1.32 0 2 0 C2.66 0.66 3.32 1.32 4 2 C4.66 2.33 5.32 2.66 6 3 C5.67 4.65 5.34 6.3 5 8 C2.5 5.6875 2.5 5.6875 0 3 C0 2.01 0 1.02 0 0 Z " fill="#ECECEC" transform="translate(133,159)"/>
<path d="M0 0 C1.875 0.25 1.875 0.25 4 1 C5.25 3.0625 5.25 3.0625 6 5 C5.01 5.495 5.01 5.495 4 6 C3.01 5.67 2.02 5.34 1 5 C0.67 3.35 0.34 1.7 0 0 Z " fill="#101010" transform="translate(274,353)"/>
<path d="M0 0 C0.66 0.33 1.32 0.66 2 1 C1.6875 2.875 1.6875 2.875 1 5 C0.01 5.66 -0.98 6.32 -2 7 C-2.33 5.02 -2.66 3.04 -3 1 C-2.01 0.67 -1.02 0.34 0 0 Z " fill="#ECECEC" transform="translate(148,336)"/>
<path d="M0 0 C0.99 0.99 1.98 1.98 3 3 C0.44008376 5.01136276 -2.04590299 6.62845496 -5 8 C-4.1875 5.5625 -4.1875 5.5625 -3 3 C-2.01 2.67 -1.02 2.34 0 2 C0 1.34 0 0.68 0 0 Z " fill="#E5E5E5" transform="translate(205,223)"/>
<path d="M0 0 C0.99 0.99 1.98 1.98 3 3 C1.68 3.99 0.36 4.98 -1 6 C-1.66 5.01 -2.32 4.02 -3 3 C-2.01 2.01 -1.02 1.02 0 0 Z M-5 4 C-4.34 4 -3.68 4 -3 4 C-3.33 4.66 -3.66 5.32 -4 6 C-4.33 5.34 -4.66 4.68 -5 4 Z " fill="#F1F1F1" transform="translate(165,170)"/>
<path d="M0 0 C2.96404505 2.80804268 5.44499019 5.18315774 7 9 C5.1875 8.8125 5.1875 8.8125 3 8 C0.85802506 5.09303401 0 3.64478912 0 0 Z " fill="#1F1F1F" transform="translate(190,145)"/>
<path d="M0 0 C0.33 0.66 0.66 1.32 1 2 C0.67 2.66 0.34 3.32 0 4 C0.66 4.33 1.32 4.66 2 5 C-0.475 6.485 -0.475 6.485 -3 8 C-3.75 6.25 -3.75 6.25 -4 4 C-2.0625 1.75 -2.0625 1.75 0 0 Z " fill="#EEEEEE" transform="translate(302,144)"/>
<path d="M0 0 C0.66 1.32 1.32 2.64 2 4 C0.02 5.32 -1.96 6.64 -4 8 C-4 4.09161134 -2.49432124 2.88405893 0 0 Z " fill="#E4E4E4" transform="translate(170,286)"/>
<path d="M0 0 C0 0.99 0 1.98 0 3 C0.3062434 4.33981486 0.63451555 5.67511887 1 7 C-0.66666667 7 -2.33333333 7 -4 7 C-2.92598892 4.08482708 -2.22189824 2.22189824 0 0 Z " fill="#171717" transform="translate(293,184)"/>
<path d="M0 0 C0.33 0.99 0.66 1.98 1 3 C0.01 3.33 -0.98 3.66 -2 4 C-2 4.66 -2 5.32 -2 6 C-4 7.625 -4 7.625 -6 9 C-6.66 8.67 -7.32 8.34 -8 8 C-5.36 5.36 -2.72 2.72 0 0 Z " fill="#D8D8D8" transform="translate(278,170)"/>
<path d="M0 0 C0.66 0.66 1.32 1.32 2 2 C2.66 1.67 3.32 1.34 4 1 C4.33 2.98 4.66 4.96 5 7 C4.01 7.495 4.01 7.495 3 8 C1.02 4.535 1.02 4.535 -1 1 C-0.67 0.67 -0.34 0.34 0 0 Z " fill="#161616" transform="translate(218,144)"/>
<path d="M0 0 C2.95929119 2.75520215 5.03681826 5.46627288 7 9 C4.50638429 7.79618552 2.31856917 6.54571278 0 5 C-0.1875 2.375 -0.1875 2.375 0 0 Z " fill="#1E1E1E" transform="translate(346,353)"/>
<path d="M0 0 C0.268125 0.598125 0.53625 1.19625 0.8125 1.8125 C1.98493467 3.97224808 3.19369282 5.35790256 5 7 C4.34 7.66 3.68 8.32 3 9 C1.35 6.69 -0.3 4.38 -2 2 C-1.34 2 -0.68 2 0 2 C0 1.34 0 0.68 0 0 Z " fill="#1E1E1E" transform="translate(219,237)"/>
<path d="M0 0 C0.66 0.66 1.32 1.32 2 2 C2.66 1.67 3.32 1.34 4 1 C4.33 2.98 4.66 4.96 5 7 C4.01 7.495 4.01 7.495 3 8 C1.02 4.535 1.02 4.535 -1 1 C-0.67 0.67 -0.34 0.34 0 0 Z " fill="#E8E8E8" transform="translate(234,200)"/>
<path d="M0 0 C0.66 0.99 1.32 1.98 2 3 C0.68 4.32 -0.64 5.64 -2 7 C-2.66 5.68 -3.32 4.36 -4 3 C-2.68 2.67 -1.36 2.34 0 2 C0 1.34 0 0.68 0 0 Z " fill="#F3F3F3" transform="translate(142,163)"/>
<path d="M0 0 C0.66 0 1.32 0 2 0 C3 3 3 3 2.0625 5.1875 C1.5365625 6.0846875 1.5365625 6.0846875 1 7 C0.01 5.35 -0.98 3.7 -2 2 C-1.34 1.34 -0.68 0.68 0 0 Z " fill="#EFEFEF" transform="translate(338,337)"/>
<path d="M0 0 C0.99 0.99 1.98 1.98 3 3 C1.68 4.32 0.36 5.64 -1 7 C-2 4 -2 4 -2 2 C-1.34 2 -0.68 2 0 2 C0 1.34 0 0.68 0 0 Z " fill="#090909" transform="translate(218,276)"/>
<path d="M0 0 C1.65 1.65 3.3 3.3 5 5 C4.67 5.66 4.34 6.32 4 7 C3.34 7 2.68 7 2 7 C0.3125 5.1875 0.3125 5.1875 -1 3 C-0.67 2.01 -0.34 1.02 0 0 Z " fill="#131313" transform="translate(211,173)"/>
<path d="M0 0 C0.66 1.32 1.32 2.64 2 4 C0.33333333 4 -1.33333333 4 -3 4 C-3.99 4.33 -4.98 4.66 -6 5 C-4.87312259 1.61936778 -3.78825335 0 0 0 Z " fill="#ECECEC" transform="translate(224,154)"/>
<path d="M0 0 C0.66 0 1.32 0 2 0 C2 0.66 2 1.32 2 2 C3.32 1.34 4.64 0.68 6 0 C4.84826645 2.46800047 3.95216435 4.04783565 2 6 C0 3 0 3 0 0 Z " fill="#EBEBEB" transform="translate(273,346)"/>
<path d="M0 0 C0 3 0 3 -2.5 5.6875 C-3.325 6.450625 -4.15 7.21375 -5 8 C-4.67 6.35 -4.34 4.7 -4 3 C-3.34 3 -2.68 3 -2 3 C-2 2.34 -2 1.68 -2 1 C-1.34 0.67 -0.68 0.34 0 0 Z " fill="#E9E9E9" transform="translate(203,279)"/>
<path d="M0 0 C0.33 0.99 0.66 1.98 1 3 C-1.97 5.475 -1.97 5.475 -5 8 C-3.8141763 4.62496331 -2.72426311 2.35277269 0 0 Z " fill="#D6D6D6" transform="translate(260,189)"/>
<path d="M0 0 C2.88575819 0.39803561 3.82189513 0.79009069 5.75 3.0625 C6.1625 3.701875 6.575 4.34125 7 5 C6.34 5.66 5.68 6.32 5 7 C0 1.125 0 1.125 0 0 Z " fill="#E8E8E8" transform="translate(83,94)"/>
<path d="M0 0 C1.98 0.99 1.98 0.99 4 2 C3.34 3.65 2.68 5.3 2 7 C1.34 6.67 0.68 6.34 0 6 C0 4.02 0 2.04 0 0 Z " fill="#F1F1F1" transform="translate(89,97)"/>
</svg>
